<svg xmlns="http://www.w3.org/2000/svg" width="20.639" height="20.703" viewBox="0 0 20.639 20.703">
  <g id="Activity" transform="translate(0.75 0.75)">
    <path id="Stroke_1" data-name="Stroke 1" d="M0,4.989,2.993,1.1,6.407,3.78,9.336,0" transform="translate(4.468 7.516)" fill="none" stroke="#c6cedd" stroke-linecap="round" stroke-linejoin="round" stroke-width="1.5" stroke-dasharray="0 0"/>
    <path id="Stroke_2" data-name="Stroke 2" d="M3.844,1.922A1.922,1.922,0,1,1,1.922,0,1.922,1.922,0,0,1,3.844,1.922Z" transform="translate(15.295)" fill="none" stroke="#c6cedd" stroke-linecap="round" stroke-linejoin="round" stroke-width="1.5" stroke-dasharray="0 0"/>
    <path id="Stroke_4" data-name="Stroke 4" d="M18.306,6.216A20.809,20.809,0,0,1,18.5,9.25c0,6.938-2.312,9.25-9.25,9.25S0,16.188,0,9.25,2.313,0,9.25,0a20.931,20.931,0,0,1,2.983.187" transform="translate(0 0.703)" fill="none" stroke="#c6cedd" stroke-linecap="round" stroke-linejoin="round" stroke-width="1.5" stroke-dasharray="0 0"/>
  </g>
</svg>
