<svg xmlns="http://www.w3.org/2000/svg" width="20.049" height="21.499" viewBox="0 0 20.049 21.499">
  <g id="Calendar" transform="translate(0.75 0.75)">
    <path id="Stroke_1" data-name="Stroke 1" d="M9.274,0c6.956,0,9.275,2.318,9.275,9.274s-2.319,9.274-9.275,9.274S0,16.23,0,9.274,2.319,0,9.274,0Z" transform="translate(0 1.451)" fill="none" stroke="#4a5b84" stroke-linecap="round" stroke-linejoin="round" stroke-width="1.5" stroke-dasharray="0 0"/>
    <path id="Stroke_3" data-name="Stroke 3" d="M0,.5H18.008" transform="translate(0.275 6.773)" fill="none" stroke="#4a5b84" stroke-linecap="round" stroke-linejoin="round" stroke-width="1.5" stroke-dasharray="0 0"/>
    <path id="Stroke_5" data-name="Stroke 5" d="M.5.5H.5" transform="translate(13.183 10.711)" fill="none" stroke="#4a5b84" stroke-linecap="round" stroke-linejoin="round" stroke-width="1.5" stroke-dasharray="0 0"/>
    <path id="Stroke_7" data-name="Stroke 7" d="M.5.5H.5" transform="translate(8.784 10.711)" fill="none" stroke="#4a5b84" stroke-linecap="round" stroke-linejoin="round" stroke-width="1.5" stroke-dasharray="0 0"/>
    <path id="Stroke_9" data-name="Stroke 9" d="M.5.5H.5" transform="translate(4.376 10.711)" fill="none" stroke="#4a5b84" stroke-linecap="round" stroke-linejoin="round" stroke-width="1.5" stroke-dasharray="0 0"/>
    <path id="Stroke_11" data-name="Stroke 11" d="M.5.5H.5" transform="translate(13.183 14.563)" fill="none" stroke="#4a5b84" stroke-linecap="round" stroke-linejoin="round" stroke-width="1.5" stroke-dasharray="0 0"/>
    <path id="Stroke_13" data-name="Stroke 13" d="M.5.5H.5" transform="translate(8.784 14.563)" fill="none" stroke="#4a5b84" stroke-linecap="round" stroke-linejoin="round" stroke-width="1.5" stroke-dasharray="0 0"/>
    <path id="Stroke_15" data-name="Stroke 15" d="M.5.5H.5" transform="translate(4.376 14.563)" fill="none" stroke="#4a5b84" stroke-linecap="round" stroke-linejoin="round" stroke-width="1.5" stroke-dasharray="0 0"/>
    <path id="Stroke_17" data-name="Stroke 17" d="M.5,0V3.262" transform="translate(12.783)" fill="none" stroke="#4a5b84" stroke-linecap="round" stroke-linejoin="round" stroke-width="1.5" stroke-dasharray="0 0"/>
    <path id="Stroke_19" data-name="Stroke 19" d="M.5,0V3.262" transform="translate(4.775)" fill="none" stroke="#4a5b84" stroke-linecap="round" stroke-linejoin="round" stroke-width="1.5" stroke-dasharray="0 0"/>
  </g>
</svg>
