<svg width="114" height="29" viewBox="0 0 114 29" fill="none" xmlns="http://www.w3.org/2000/svg">
<path d="M14.1875 22H2.15625C1.09375 22 0.5625 21.7083 0.5625 21.125V1.29688C0.5625 0.713542 1.09375 0.421875 2.15625 0.421875C3.20833 0.421875 3.73438 0.713542 3.73438 1.29688V20.25H14.1875C15.25 20.25 15.7812 20.5417 15.7812 21.125C15.7812 21.7083 15.25 22 14.1875 22ZM18.9688 5C17.8958 5 17.3594 4.46875 17.3594 3.40625C17.3594 2.33333 17.8958 1.79688 18.9688 1.79688C20.0312 1.79688 20.5625 2.33333 20.5625 3.40625C20.5625 4.46875 20.0312 5 18.9688 5ZM18.9688 22.375C17.9062 22.375 17.375 22.0833 17.375 21.5V7.25C17.375 6.66667 17.9062 6.375 18.9688 6.375C20.0208 6.375 20.5469 6.66667 20.5469 7.25V21.5C20.5469 22.0833 20.0208 22.375 18.9688 22.375ZM36.7188 22.375C35.6667 22.375 35.1406 22.0833 35.1406 21.5V13.4062C35.1406 12.1875 34.8073 11.0052 34.1406 9.85938C33.474 8.71354 32.4219 8.14062 30.9844 8.14062C29.4427 8.14062 28.3073 8.76562 27.5781 10.0156C26.849 11.2552 26.4844 12.526 26.4844 13.8281V21.5C26.4844 22.0833 25.9583 22.375 24.9062 22.375C23.8438 22.375 23.3125 22.0833 23.3125 21.5V7.26562C23.3125 6.68229 23.8438 6.39062 24.9062 6.39062C25.9583 6.39062 26.4844 6.68229 26.4844 7.26562V8.20312C27.6302 6.98438 29.1927 6.375 31.1719 6.375C33.2552 6.375 34.9635 7.04167 36.2969 8.375C37.6406 9.69792 38.3125 11.3698 38.3125 13.3906V21.5C38.3125 22.0833 37.7812 22.375 36.7188 22.375ZM54.9375 22.375C54.125 22.375 53.5573 22.1979 53.2344 21.8438L46.7344 14.9062L44.6094 16.6875V21.5C44.6094 22.0833 44.0781 22.375 43.0156 22.375C41.9531 22.375 41.4219 22.0833 41.4219 21.5V1.29688C41.4219 0.713542 41.9531 0.421875 43.0156 0.421875C44.0781 0.421875 44.6094 0.713542 44.6094 1.29688V13.9219L53.25 6.71875C53.5104 6.48958 53.9115 6.375 54.4531 6.375C54.724 6.375 54.9583 6.40625 55.1562 6.46875C55.6354 6.60417 55.875 6.8125 55.875 7.09375C55.875 7.20833 55.8073 7.32812 55.6719 7.45312L49.0312 12.9531L56.625 21.0469C56.75 21.1823 56.8125 21.3125 56.8125 21.4375C56.8125 21.8438 56.4427 22.1302 55.7031 22.2969C55.4635 22.349 55.2083 22.375 54.9375 22.375ZM76.4375 22.375C76.0312 22.375 75.6771 22.2969 75.375 22.1406C74.1875 21.5469 73.2917 20.75 72.6875 19.75C72.0833 18.75 71.5417 17.724 71.0625 16.6719C70.7083 15.8802 70.2396 14.974 69.6562 13.9531C69.0833 12.9219 68.2708 12.4062 67.2188 12.4062H61.9219V21.5C61.9219 22.0833 61.3906 22.375 60.3281 22.375C59.276 22.375 58.75 22.0833 58.75 21.5V1.67188C58.75 1.08854 59.276 0.796875 60.3281 0.796875H70C71.6979 0.796875 73.2708 1.3125 74.7188 2.34375C76.1667 3.375 76.8906 4.79167 76.8906 6.59375C76.8906 9.66667 75.1406 11.5469 71.6406 12.2344C72.224 12.776 72.7031 13.4062 73.0781 14.125C73.4635 14.8333 73.8177 15.5417 74.1406 16.25C74.5052 17.0729 74.9427 17.9375 75.4531 18.8438C75.9635 19.75 76.6458 20.4167 77.5 20.8438C77.8438 21.0208 78.0156 21.2396 78.0156 21.5C78.0156 21.7188 77.8802 21.9115 77.6094 22.0781C77.3073 22.276 76.9167 22.375 76.4375 22.375ZM70 10.6562C71.0521 10.6562 71.9323 10.224 72.6406 9.35938C73.3594 8.49479 73.7188 7.57292 73.7188 6.59375C73.7188 5.60417 73.3594 4.68229 72.6406 3.82812C71.9323 2.97396 71.0521 2.54688 70 2.54688H61.9219V10.6562H70ZM88.0156 22.375C85.651 22.375 83.6562 21.6719 82.0312 20.2656C80.4062 18.849 79.5938 16.9167 79.5938 14.4688C79.5938 11.9792 80.4167 10.0104 82.0625 8.5625C83.7188 7.10417 85.75 6.375 88.1562 6.375C90.4479 6.375 92.4219 6.97917 94.0781 8.1875C95.7344 9.38542 96.5625 11.1823 96.5625 13.5781C96.5625 14.2448 96.0365 14.5781 94.9844 14.5781H82.75C82.7708 16.1198 83.2396 17.5156 84.1562 18.7656C85.0729 20.0156 86.3646 20.6406 88.0312 20.6406C89.2292 20.6406 90.3385 20.3177 91.3594 19.6719C92.4323 18.9844 93.0156 18.1719 93.1094 17.2344C93.1615 16.6927 93.6771 16.4219 94.6562 16.4219C95.7292 16.4219 96.2656 16.7083 96.2656 17.2812C96.2656 17.5729 96.1771 17.9271 96 18.3438C95.6146 19.2604 94.8802 20.0729 93.7969 20.7812C92.1719 21.8438 90.2448 22.375 88.0156 22.375ZM93.3594 12.8438C93.026 9.6875 91.2917 8.10938 88.1562 8.10938C85.3646 8.10938 83.625 9.6875 82.9375 12.8438H93.3594ZM113.906 21.4844C113.906 23.8385 113.141 25.5521 111.609 26.625C110.089 27.7083 108.245 28.25 106.078 28.25C104.828 28.25 103.521 28.0365 102.156 27.6094C100.802 27.1823 99.7552 26.4375 99.0156 25.375C98.9427 25.2708 98.9062 25.1667 98.9062 25.0625C98.9062 24.4896 99.4323 24.2031 100.484 24.2031C101.224 24.2031 101.719 24.3854 101.969 24.75C102.771 25.9167 104.13 26.5 106.047 26.5C109.172 26.5 110.734 24.7708 110.734 21.3125V20.4688C109.714 21.6875 108.271 22.2969 106.406 22.2969C101.406 22.2969 98.9062 19.9531 98.9062 15.2656V7.17188C98.9062 6.58854 99.4375 6.29688 100.5 6.29688C101.552 6.29688 102.078 6.58854 102.078 7.17188V15.2656C102.078 16.526 102.438 17.724 103.156 18.8594C103.875 19.9948 104.958 20.5625 106.406 20.5625C107.802 20.5625 108.87 19.9948 109.609 18.8594C110.359 17.724 110.734 16.5417 110.734 15.3125V7.17188C110.734 6.58854 111.26 6.29688 112.312 6.29688C113.375 6.29688 113.906 6.58854 113.906 7.17188V21.4844Z" fill="#0E0E0E"/>
</svg>
