<svg width="24" height="24" viewBox="0 0 24 24" fill="none" xmlns="http://www.w3.org/2000/svg">
<path d="M9.78752 13.0952C10.2626 13.7303 10.8687 14.2558 11.5648 14.6361C12.2608 15.0164 13.0305 15.2425 13.8216 15.2992C14.6127 15.3558 15.4068 15.2417 16.1499 14.9645C16.893 14.6873 17.5679 14.2535 18.1286 13.6925L21.4473 10.3738C22.4549 9.33062 23.0124 7.93342 22.9998 6.48315C22.9872 5.03289 22.4055 3.64559 21.3799 2.62006C20.3544 1.59452 18.9671 1.01281 17.5168 1.00021C16.0666 0.987607 14.6694 1.54512 13.6262 2.55268L11.7234 4.44435" stroke="black" stroke-width="2" stroke-linecap="round" stroke-linejoin="round"/>
<path d="M14.2125 10.8827C13.7374 10.2476 13.1313 9.72204 12.4352 9.34176C11.7392 8.96148 10.9695 8.73534 10.1784 8.67868C9.38728 8.62202 8.59322 8.73617 7.85009 9.01338C7.10697 9.29059 6.43215 9.72437 5.87141 10.2853L2.55268 13.604C1.54512 14.6472 0.987607 16.0444 1.00021 17.4947C1.01281 18.945 1.59452 20.3323 2.62006 21.3578C3.64559 22.3833 5.03289 22.9651 6.48315 22.9777C7.93342 22.9903 9.33062 22.4327 10.3738 21.4252L12.2655 19.5335" stroke="black" stroke-width="2" stroke-linecap="round" stroke-linejoin="round"/>
</svg>
