<svg width="65" height="22" viewBox="0 0 65 22" fill="none" xmlns="http://www.w3.org/2000/svg">
<path d="M10.3906 17H1.36719C0.570312 17 0.171875 16.7812 0.171875 16.3438V1.47266C0.171875 1.03516 0.570312 0.816406 1.36719 0.816406C2.15625 0.816406 2.55078 1.03516 2.55078 1.47266V15.6875H10.3906C11.1875 15.6875 11.5859 15.9062 11.5859 16.3438C11.5859 16.7812 11.1875 17 10.3906 17ZM14.2578 5.28125C15.0469 5.28125 15.4414 5.5 15.4414 5.9375V12.0078C15.4414 12.9219 15.6914 13.8086 16.1914 14.668C16.6914 15.5273 17.4805 15.957 18.5586 15.957C19.7148 15.957 20.5664 15.4922 21.1133 14.5625C21.6602 13.625 21.9336 12.668 21.9336 11.6914V5.9375C21.9336 5.5 22.3281 5.28125 23.1172 5.28125C23.9141 5.28125 24.3125 5.5 24.3125 5.9375V16.6133C24.3125 17.0508 23.9141 17.2695 23.1172 17.2695C22.3281 17.2695 21.9336 17.0508 21.9336 16.6133V15.9102C21.0742 16.8242 19.9023 17.2812 18.418 17.2812C16.8555 17.2812 15.5703 16.7852 14.5625 15.793C13.5625 14.793 13.0625 13.5352 13.0625 12.0195V5.9375C13.0625 5.5 13.4609 5.28125 14.2578 5.28125ZM36.7109 17.2812C35.9219 17.2812 35.5273 17.0625 35.5273 16.625V10.5547C35.5273 9.64062 35.2773 8.75391 34.7773 7.89453C34.2773 7.03516 33.4883 6.60547 32.4102 6.60547C31.2539 6.60547 30.4023 7.07422 29.8555 8.01172C29.3086 8.94141 29.0352 9.89453 29.0352 10.8711V16.625C29.0352 17.0625 28.6406 17.2812 27.8516 17.2812C27.0547 17.2812 26.6562 17.0625 26.6562 16.625V5.94922C26.6562 5.51172 27.0547 5.29297 27.8516 5.29297C28.6406 5.29297 29.0352 5.51172 29.0352 5.94922V6.65234C29.8945 5.73828 31.0664 5.28125 32.5508 5.28125C34.1133 5.28125 35.3945 5.78125 36.3945 6.78125C37.4023 7.77344 37.9062 9.02734 37.9062 10.543V16.625C37.9062 17.0625 37.5078 17.2812 36.7109 17.2812ZM51.5 16.6133C51.5 18.3789 50.9258 19.6641 49.7773 20.4688C48.6367 21.2812 47.2539 21.6875 45.6289 21.6875C44.6914 21.6875 43.7109 21.5273 42.6875 21.207C41.6719 20.8867 40.8867 20.3281 40.332 19.5312C40.2773 19.4531 40.25 19.375 40.25 19.2969C40.25 18.8672 40.6445 18.6523 41.4336 18.6523C41.9883 18.6523 42.3594 18.7891 42.5469 19.0625C43.1484 19.9375 44.168 20.375 45.6055 20.375C47.9492 20.375 49.1211 19.0781 49.1211 16.4844V15.8516C48.3555 16.7656 47.2734 17.2227 45.875 17.2227C42.125 17.2227 40.25 15.4648 40.25 11.9492V5.87891C40.25 5.44141 40.6484 5.22266 41.4453 5.22266C42.2344 5.22266 42.6289 5.44141 42.6289 5.87891V11.9492C42.6289 12.8945 42.8984 13.793 43.4375 14.6445C43.9766 15.4961 44.7891 15.9219 45.875 15.9219C46.9219 15.9219 47.7227 15.4961 48.2773 14.6445C48.8398 13.793 49.1211 12.9062 49.1211 11.9844V5.87891C49.1211 5.44141 49.5156 5.22266 50.3047 5.22266C51.1016 5.22266 51.5 5.44141 51.5 5.87891V16.6133ZM63.3477 17.2812C62.7695 17.2812 62.3672 17.1484 62.1406 16.8828L58.625 12.7344L54.875 16.9883C54.7031 17.1836 54.4023 17.2812 53.9727 17.2812C53.8398 17.2812 53.7188 17.2695 53.6094 17.2461C53.1953 17.1602 52.9883 17.0078 52.9883 16.7891C52.9883 16.7188 53.0156 16.6523 53.0703 16.5898L57.5586 11.4805L53.0703 6.17188C53 6.09375 52.9648 6.00781 52.9648 5.91406C52.9648 5.63281 53.2344 5.4375 53.7734 5.32812C53.8984 5.29688 54.0586 5.28125 54.2539 5.28125C54.8164 5.28125 55.2148 5.41406 55.4492 5.67969L58.9648 9.82812L62.7148 5.58594C62.8867 5.39062 63.1875 5.29297 63.6172 5.29297C63.7578 5.29297 63.8789 5.30469 63.9805 5.32812C64.3945 5.41406 64.6016 5.56641 64.6016 5.78516C64.6016 5.84766 64.5742 5.91016 64.5195 5.97266L60.0312 11.082L64.5195 16.3906C64.5898 16.4688 64.625 16.5547 64.625 16.6484C64.625 16.9297 64.3555 17.125 63.8164 17.2344C63.6445 17.2656 63.4883 17.2812 63.3477 17.2812Z" fill="#9C9C9C"/>
</svg>
