<svg width="46" height="46" viewBox="0 0 46 46" fill="none" xmlns="http://www.w3.org/2000/svg">
<path d="M22.5625 42C22.5625 42 37.5625 34.5 37.5625 23.25V10.125L22.5625 4.5L7.5625 10.125V23.25C7.5625 34.5 22.5625 42 22.5625 42Z" stroke="#827E7E" stroke-width="2" stroke-linecap="round" stroke-linejoin="round"/>
<path d="M28.9304 21.1273H17.0436C16.1058 21.1273 15.3455 21.8876 15.3455 22.8254V28.7688C15.3455 29.7067 16.1058 30.4669 17.0436 30.4669H28.9304C29.8683 30.4669 30.6285 29.7067 30.6285 28.7688V22.8254C30.6285 21.8876 29.8683 21.1273 28.9304 21.1273Z" stroke="#827E7E" stroke-width="2" stroke-linecap="round" stroke-linejoin="round"/>
<path d="M18.7417 21.1273V17.7311C18.7417 16.6052 19.189 15.5254 19.9851 14.7293C20.7813 13.9331 21.8611 13.4858 22.987 13.4858C24.1129 13.4858 25.1927 13.9331 25.9889 14.7293C26.785 15.5254 27.2323 16.6052 27.2323 17.7311V21.1273" stroke="#827E7E" stroke-width="2" stroke-linecap="round" stroke-linejoin="round"/>
</svg>
