<svg width="25" height="25" viewBox="0 0 25 25" fill="none" xmlns="http://www.w3.org/2000/svg">
<path d="M12.5 15.6364C14.2322 15.6364 15.6364 14.2322 15.6364 12.5C15.6364 10.7678 14.2322 9.36365 12.5 9.36365C10.7678 9.36365 9.36365 10.7678 9.36365 12.5C9.36365 14.2322 10.7678 15.6364 12.5 15.6364Z" stroke="#D6D6D6" stroke-width="2" stroke-linecap="round" stroke-linejoin="round"/>
<path d="M20.2364 15.6364C20.0972 15.9517 20.0557 16.3015 20.1172 16.6406C20.1787 16.9798 20.3403 17.2927 20.5814 17.5391L20.6441 17.6018C20.8385 17.796 20.9927 18.0266 21.0979 18.2804C21.2032 18.5343 21.2573 18.8064 21.2573 19.0811C21.2573 19.3559 21.2032 19.628 21.0979 19.8818C20.9927 20.1357 20.8385 20.3663 20.6441 20.5605C20.4499 20.7549 20.2193 20.9091 19.9655 21.0143C19.7116 21.1195 19.4395 21.1737 19.1648 21.1737C18.89 21.1737 18.6179 21.1195 18.3641 21.0143C18.1102 20.9091 17.8796 20.7549 17.6855 20.5605L17.6227 20.4977C17.3763 20.2567 17.0634 20.095 16.7243 20.0335C16.3851 19.972 16.0353 20.0136 15.72 20.1527C15.4108 20.2853 15.1471 20.5053 14.9613 20.7858C14.7756 21.0663 14.6759 21.3949 14.6745 21.7314V21.9091C14.6745 22.4636 14.4543 22.9955 14.0621 23.3876C13.67 23.7797 13.1382 24 12.5836 24C12.0291 24 11.4973 23.7797 11.1051 23.3876C10.713 22.9955 10.4927 22.4636 10.4927 21.9091V21.815C10.4846 21.469 10.3726 21.1334 10.1713 20.8518C9.9699 20.5703 9.6885 20.3558 9.36364 20.2364C9.04831 20.0972 8.69852 20.0557 8.35938 20.1172C8.02024 20.1787 7.7073 20.3403 7.46091 20.5814L7.39818 20.6441C7.20399 20.8385 6.97339 20.9927 6.71956 21.0979C6.46572 21.2032 6.19364 21.2573 5.91886 21.2573C5.64409 21.2573 5.372 21.2032 5.11817 21.0979C4.86434 20.9927 4.63373 20.8385 4.43955 20.6441C4.24514 20.4499 4.09092 20.2193 3.98569 19.9655C3.88047 19.7116 3.82631 19.4395 3.82631 19.1648C3.82631 18.89 3.88047 18.6179 3.98569 18.3641C4.09092 18.1102 4.24514 17.8796 4.43955 17.6855L4.50227 17.6227C4.74329 17.3763 4.90497 17.0634 4.96646 16.7243C5.02795 16.3851 4.98644 16.0353 4.84727 15.72C4.71475 15.4108 4.4947 15.1471 4.21421 14.9613C3.93373 14.7756 3.60505 14.6759 3.26864 14.6745H3.09091C2.53637 14.6745 2.00453 14.4543 1.61241 14.0621C1.22029 13.67 1 13.1382 1 12.5836C1 12.0291 1.22029 11.4973 1.61241 11.1051C2.00453 10.713 2.53637 10.4927 3.09091 10.4927H3.185C3.53104 10.4846 3.86664 10.3726 4.14818 10.1713C4.42971 9.9699 4.64416 9.6885 4.76364 9.36364C4.9028 9.04831 4.94432 8.69852 4.88282 8.35938C4.82133 8.02024 4.65965 7.7073 4.41864 7.46091L4.35591 7.39818C4.1615 7.20399 4.00728 6.97339 3.90206 6.71956C3.79683 6.46572 3.74267 6.19364 3.74267 5.91886C3.74267 5.64409 3.79683 5.372 3.90206 5.11817C4.00728 4.86434 4.1615 4.63373 4.35591 4.43955C4.5501 4.24514 4.7807 4.09092 5.03453 3.98569C5.28837 3.88047 5.56045 3.82631 5.83523 3.82631C6.11 3.82631 6.38209 3.88047 6.63592 3.98569C6.88975 4.09092 7.12036 4.24514 7.31455 4.43955L7.37727 4.50227C7.62366 4.74329 7.93661 4.90497 8.27575 4.96646C8.61489 5.02795 8.96467 4.98644 9.28 4.84727H9.36364C9.67285 4.71475 9.93656 4.4947 10.1223 4.21421C10.3081 3.93373 10.4077 3.60505 10.4091 3.26864V3.09091C10.4091 2.53637 10.6294 2.00453 11.0215 1.61241C11.4136 1.22029 11.9455 1 12.5 1C13.0545 1 13.5864 1.22029 13.9785 1.61241C14.3706 2.00453 14.5909 2.53637 14.5909 3.09091V3.185C14.5923 3.52141 14.6919 3.85009 14.8777 4.13058C15.0634 4.41106 15.3271 4.63111 15.6364 4.76364C15.9517 4.9028 16.3015 4.94432 16.6406 4.88282C16.9798 4.82133 17.2927 4.65965 17.5391 4.41864L17.6018 4.35591C17.796 4.1615 18.0266 4.00728 18.2804 3.90206C18.5343 3.79683 18.8064 3.74267 19.0811 3.74267C19.3559 3.74267 19.628 3.79683 19.8818 3.90206C20.1357 4.00728 20.3663 4.1615 20.5605 4.35591C20.7549 4.5501 20.9091 4.7807 21.0143 5.03453C21.1195 5.28837 21.1737 5.56045 21.1737 5.83523C21.1737 6.11 21.1195 6.38209 21.0143 6.63592C20.9091 6.88975 20.7549 7.12036 20.5605 7.31455L20.4977 7.37727C20.2567 7.62366 20.095 7.93661 20.0335 8.27575C19.972 8.61489 20.0136 8.96467 20.1527 9.28V9.36364C20.2853 9.67285 20.5053 9.93656 20.7858 10.1223C21.0663 10.3081 21.3949 10.4077 21.7314 10.4091H21.9091C22.4636 10.4091 22.9955 10.6294 23.3876 11.0215C23.7797 11.4136 24 11.9455 24 12.5C24 13.0545 23.7797 13.5864 23.3876 13.9785C22.9955 14.3706 22.4636 14.5909 21.9091 14.5909H21.815C21.4786 14.5923 21.1499 14.6919 20.8694 14.8777C20.5889 15.0634 20.3689 15.3271 20.2364 15.6364Z" stroke="#D6D6D6" stroke-width="2" stroke-linecap="round" stroke-linejoin="round"/>
</svg>
