<svg width="15" height="17" viewBox="0 0 15 17" fill="none" xmlns="http://www.w3.org/2000/svg">
<path d="M11.7862 5.42767C13.0088 5.42767 14 4.4365 14 3.21384C14 1.99117 13.0088 1 11.7862 1C10.5635 1 9.57233 1.99117 9.57233 3.21384C9.57233 4.4365 10.5635 5.42767 11.7862 5.42767Z" stroke="#9C9C9C" stroke-linecap="round" stroke-linejoin="round"/>
<path d="M2.93082 10.5932C4.15348 10.5932 5.14465 9.60203 5.14465 8.37936C5.14465 7.1567 4.15348 6.16553 2.93082 6.16553C1.70815 6.16553 0.71698 7.1567 0.71698 8.37936C0.71698 9.60203 1.70815 10.5932 2.93082 10.5932Z" stroke="#9C9C9C" stroke-linecap="round" stroke-linejoin="round"/>
<path d="M11.7862 15.759C13.0088 15.759 14 14.7678 14 13.5451C14 12.3225 13.0088 11.3313 11.7862 11.3313C10.5635 11.3313 9.57233 12.3225 9.57233 13.5451C9.57233 14.7678 10.5635 15.759 11.7862 15.759Z" stroke="#9C9C9C" stroke-linecap="round" stroke-linejoin="round"/>
<path d="M4.84213 9.49365L9.8823 12.4307" stroke="#9C9C9C" stroke-linecap="round" stroke-linejoin="round"/>
<path d="M9.87492 4.32812L4.84213 7.26515" stroke="#9C9C9C" stroke-linecap="round" stroke-linejoin="round"/>
</svg>
